<svg xmlns="http://www.w3.org/2000/svg" viewBox="-49 141 512 512" id="bug"><path fill="none" d="M202.7 231.5c24.6 0 43-12.8 43-24.3s-18.3-24.2-43-24.2-43 12.8-43 24.3 18.4 24.2 43 24.2zM293.1 319.5c-23.7-31-54.7-48-87.4-48-32.6 0-63.7 17.1-87.4 48-.3.4-.6.8-.9 1.1 28.7 12.5 60.2 19.2 92.9 19.2 29.1 0 57.9-6.2 84.7-17.7-.5-.8-1.2-1.7-1.9-2.6zM97.3 355.5c-11.4 26-17.6 55.7-17.6 86.8 0 34.7 7.6 67.6 21.8 95.7.1.2.2.4.3.7 4.8 9.4 10.3 18.2 16.6 26.4 18.7 24.5 42 40.2 67.1 45.8-.4-1.6-.6-3.3-.6-5L186 379c-31.2-3-61.1-11-88.7-23.5zM225.9 379.4l-1.1 226.4c0 1.8-.3 3.6-.8 5.3 25.8-5.1 49.8-21.1 69-46.2 24.9-32.6 38.6-76.1 38.6-122.7 0-30.2-5.8-59.2-16.7-84.7-28.2 12.6-58.3 20.1-89 21.9z"></path><linearGradient id="a" x1="-48" x2="462" y1="398" y2="398" gradientUnits="userSpaceOnUse"><stop offset="0" stop-color="#FF884B"></stop><stop offset=".35" stop-color="#FF634C"></stop><stop offset=".655" stop-color="#FE4A4F"></stop><stop offset="1" stop-color="#FE4840"></stop></linearGradient><path fill="url(#a)" d="M441 445.2c11.6 0 21-9.4 21-21s-9.4-21-21-21h-72.2c-3.4-23-9.6-44.4-18.4-64.3 3.4-2.2 6.8-4.5 10.2-6.9 42.9-29.8 76.9-70.9 98.4-118.5 4.5-10.1.1-21.9-10-26.5-10.1-4.5-21.9-.1-26.5 10-20.1 44.4-52.7 81.3-91.8 106.4-1.9-2.8-3.9-5.5-5.9-8.1-16.3-21.3-35.5-37.6-56.5-48.4 11.1-11.2 17.3-25.1 17.3-39.6 0-18.3-9.8-35.6-27-47.7-15.1-10.7-35-16.6-55.9-16.6s-40.8 5.9-56 16.6c-17.1 12-27 29.4-27 47.7 0 15.4 7 30.2 19.5 41.7-19.5 10.8-37.3 26.4-52.6 46.3-1.6 2-3.1 4.1-4.6 6.2-37.4-24.8-67.7-60.4-86-103.7-4.3-10.2-16-14.9-26.2-10.6s-15 16-10.7 26.2c21.8 51.5 58.1 94 103 123.1-7.9 17.3-13.9 35.7-17.6 55.7H-27c-11.6 0-21 9.4-21 21s9.4 21 21 21h66.9c-.1 2-.1 5.5-.1 8.3 0 33.1 6 65 17.2 93.8-25.9 11.8-68.7 37.8-92.5 88.2-4.7 10-.5 21.9 9.5 26.6 2.8 1.3 5.7 1.9 8.5 1.9 7.5 0 14.7-4.2 18.1-11.5C19.4 601.7 54.9 581 74.8 572c3.7 6 7.6 11.7 11.8 17.2 31.4 41.1 73.8 63.7 119.1 63.7 45.4 0 87.7-22.6 119.1-63.7 4.3-5.6 8.3-11.5 12-17.6 19.7 8.6 55.6 29.2 74.9 69.8 3.4 7.2 10.6 11.5 18.1 11.5 2.9 0 5.8-.6 8.5-1.9 10-4.7 14.2-16.6 9.5-26.6-24.1-50.8-67.5-76.7-93.3-88.3 10.9-28 16.8-58.9 17.1-90.9H441zM202.7 183c24.6 0 43 12.8 43 24.3s-18.4 24.3-43 24.3-43-12.8-43-24.3 18.4-24.3 43-24.3zm-17.2 427.7c-25-5.5-48.4-21.3-67.1-45.8-6.2-8.1-11.8-17-16.6-26.4-.1-.2-.2-.5-.3-.7-14.2-28-21.8-61-21.8-95.7 0-31.1 6.1-60.8 17.6-86.8 27.6 12.6 57.5 20.6 88.6 23.4l-1.1 226.9c0 1.9.3 3.5.7 5.1zm-68-290c.3-.4.6-.8.9-1.1 23.7-31 54.7-48 87.4-48 32.6 0 63.7 17.1 87.4 48 .7.9 1.4 1.8 2 2.7-26.9 11.4-55.6 17.7-84.7 17.7-32.8-.1-64.3-6.9-93-19.3zm175.6 244.2c-19.2 25.1-43.2 41.1-69 46.2.5-1.7.8-3.5.8-5.3l1.1-226.4c30.7-1.9 60.8-9.3 89.2-21.9 10.9 25.5 16.7 54.5 16.7 84.7-.2 46.6-13.9 90.2-38.8 122.7z"></path></svg>